<svg id="visual" viewBox="0 0 960 540" width="960" height="540" xmlns="http://www.w3.org/2000/svg" xmlns:xlink="http://www.w3.org/1999/xlink" version="1.1"><rect x="0" y="0" width="960" height="540" fill="#ffffff"></rect><path d="M0 202L74 202L74 205L148 205L148 204L222 204L222 229L295 229L295 208L369 208L369 221L443 221L443 239L517 239L517 236L591 236L591 200L665 200L665 236L738 236L738 230L812 230L812 234L886 234L886 208L960 208L960 202L960 541L960 541L886 541L886 541L812 541L812 541L738 541L738 541L665 541L665 541L591 541L591 541L517 541L517 541L443 541L443 541L369 541L369 541L295 541L295 541L222 541L222 541L148 541L148 541L74 541L74 541L0 541Z" fill="#c7d5e3"></path><path d="M0 279L74 279L74 254L148 254L148 240L222 240L222 276L295 276L295 263L369 263L369 256L443 256L443 262L517 262L517 237L591 237L591 254L665 254L665 243L738 243L738 241L812 241L812 271L886 271L886 267L960 267L960 250L960 541L960 541L886 541L886 541L812 541L812 541L738 541L738 541L665 541L665 541L591 541L591 541L517 541L517 541L443 541L443 541L369 541L369 541L295 541L295 541L222 541L222 541L148 541L148 541L74 541L74 541L0 541Z" fill="#a4bddd"></path><path d="M0 291L74 291L74 287L148 287L148 284L222 284L222 290L295 290L295 309L369 309L369 299L443 299L443 306L517 306L517 285L591 285L591 279L665 279L665 300L738 300L738 299L812 299L812 289L886 289L886 300L960 300L960 304L960 541L960 541L886 541L886 541L812 541L812 541L738 541L738 541L665 541L665 541L591 541L591 541L517 541L517 541L443 541L443 541L369 541L369 541L295 541L295 541L222 541L222 541L148 541L148 541L74 541L74 541L0 541Z" fill="#86a5d7"></path><path d="M0 353L74 353L74 318L148 318L148 351L222 351L222 333L295 333L295 340L369 340L369 353L443 353L443 344L517 344L517 346L591 346L591 345L665 345L665 337L738 337L738 349L812 349L812 336L886 336L886 351L960 351L960 342L960 541L960 541L886 541L886 541L812 541L812 541L738 541L738 541L665 541L665 541L591 541L591 541L517 541L517 541L443 541L443 541L369 541L369 541L295 541L295 541L222 541L222 541L148 541L148 541L74 541L74 541L0 541Z" fill="#6e8bd0"></path><path d="M0 384L74 384L74 393L148 393L148 371L222 371L222 386L295 386L295 371L369 371L369 363L443 363L443 369L517 369L517 376L591 376L591 383L665 383L665 390L738 390L738 381L812 381L812 395L886 395L886 395L960 395L960 362L960 541L960 541L886 541L886 541L812 541L812 541L738 541L738 541L665 541L665 541L591 541L591 541L517 541L517 541L443 541L443 541L369 541L369 541L295 541L295 541L222 541L222 541L148 541L148 541L74 541L74 541L0 541Z" fill="#5e71c5"></path><path d="M0 410L74 410L74 408L148 408L148 428L222 428L222 420L295 420L295 401L369 401L369 412L443 412L443 402L517 402L517 415L591 415L591 418L665 418L665 413L738 413L738 421L812 421L812 426L886 426L886 415L960 415L960 418L960 541L960 541L886 541L886 541L812 541L812 541L738 541L738 541L665 541L665 541L591 541L591 541L517 541L517 541L443 541L443 541L369 541L369 541L295 541L295 541L222 541L222 541L148 541L148 541L74 541L74 541L0 541Z" fill="#5655b8"></path><path d="M0 450L74 450L74 448L148 448L148 462L222 462L222 470L295 470L295 462L369 462L369 473L443 473L443 457L517 457L517 456L591 456L591 458L665 458L665 452L738 452L738 448L812 448L812 468L886 468L886 471L960 471L960 444L960 541L960 541L886 541L886 541L812 541L812 541L738 541L738 541L665 541L665 541L591 541L591 541L517 541L517 541L443 541L443 541L369 541L369 541L295 541L295 541L222 541L222 541L148 541L148 541L74 541L74 541L0 541Z" fill="#5435a6"></path><path d="M0 498L74 498L74 512L148 512L148 510L222 510L222 505L295 505L295 512L369 512L369 486L443 486L443 490L517 490L517 494L591 494L591 482L665 482L665 482L738 482L738 491L812 491L812 510L886 510L886 498L960 498L960 500L960 541L960 541L886 541L886 541L812 541L812 541L738 541L738 541L665 541L665 541L591 541L591 541L517 541L517 541L443 541L443 541L369 541L369 541L295 541L295 541L222 541L222 541L148 541L148 541L74 541L74 541L0 541Z" fill="#560090"></path></svg>