<svg id="visual" viewBox="0 0 900 600" width="900" height="600" xmlns="http://www.w3.org/2000/svg" xmlns:xlink="http://www.w3.org/1999/xlink" version="1.1"><g stroke-width="1" stroke-linejoin="bevel"><path d="M454 285L440 428L603 290Z" fill="#656789" stroke="#FFFFFF"></path><path d="M440 428L607 450L603 290Z" fill="#656789" stroke="#FFFFFF"></path><path d="M603 290L589 146L454 285Z" fill="#998cb7" stroke="#FFFFFF"></path><path d="M617 600L739 472L607 450Z" fill="#656789" stroke="#FFFFFF"></path><path d="M607 450L739 472L603 290Z" fill="#132130" stroke="#FFFFFF"></path><path d="M603 290L757 140L589 146Z" fill="#b69fce" stroke="#FFFFFF"></path><path d="M589 146L440 139L454 285Z" fill="#00101c" stroke="#FFFFFF"></path><path d="M454 285L274 286L440 428Z" fill="#d4b2e4" stroke="#FFFFFF"></path><path d="M440 428L454 600L607 450Z" fill="#7e79a0" stroke="#FFFFFF"></path><path d="M454 600L617 600L607 450Z" fill="#7e79a0" stroke="#FFFFFF"></path><path d="M739 472L769 278L603 290Z" fill="#d4b2e4" stroke="#FFFFFF"></path><path d="M319 141L274 286L454 285Z" fill="#38435b" stroke="#FFFFFF"></path><path d="M440 428L304 600L454 600Z" fill="#998cb7" stroke="#FFFFFF"></path><path d="M274 286L275 455L440 428Z" fill="#656789" stroke="#FFFFFF"></path><path d="M440 139L319 141L454 285Z" fill="#00101c" stroke="#FFFFFF"></path><path d="M617 600L745 600L739 472Z" fill="#b69fce" stroke="#FFFFFF"></path><path d="M900 451L900 297L769 278Z" fill="#f3c5f9" stroke="#FFFFFF"></path><path d="M769 278L757 140L603 290Z" fill="#b69fce" stroke="#FFFFFF"></path><path d="M589 146L466 0L440 139Z" fill="#998cb7" stroke="#FFFFFF"></path><path d="M275 455L304 600L440 428Z" fill="#4e5572" stroke="#FFFFFF"></path><path d="M274 286L171 437L275 455Z" fill="#656789" stroke="#FFFFFF"></path><path d="M275 455L146 600L304 600Z" fill="#998cb7" stroke="#FFFFFF"></path><path d="M145 274L171 437L274 286Z" fill="#253245" stroke="#FFFFFF"></path><path d="M598 0L466 0L589 146Z" fill="#f3c5f9" stroke="#FFFFFF"></path><path d="M440 139L295 0L319 141Z" fill="#132130" stroke="#FFFFFF"></path><path d="M726 0L598 0L589 146Z" fill="#998cb7" stroke="#FFFFFF"></path><path d="M769 278L900 145L757 140Z" fill="#4e5572" stroke="#FFFFFF"></path><path d="M900 451L769 278L739 472Z" fill="#7e79a0" stroke="#FFFFFF"></path><path d="M900 600L900 451L739 472Z" fill="#d4b2e4" stroke="#FFFFFF"></path><path d="M163 125L274 286L319 141Z" fill="#656789" stroke="#FFFFFF"></path><path d="M163 125L145 274L274 286Z" fill="#00101c" stroke="#FFFFFF"></path><path d="M900 0L726 0L757 140Z" fill="#998cb7" stroke="#FFFFFF"></path><path d="M757 140L726 0L589 146Z" fill="#998cb7" stroke="#FFFFFF"></path><path d="M466 0L295 0L440 139Z" fill="#253245" stroke="#FFFFFF"></path><path d="M900 297L900 145L769 278Z" fill="#00101c" stroke="#FFFFFF"></path><path d="M295 0L163 125L319 141Z" fill="#656789" stroke="#FFFFFF"></path><path d="M745 600L900 600L739 472Z" fill="#f3c5f9" stroke="#FFFFFF"></path><path d="M0 460L146 600L171 437Z" fill="#00101c" stroke="#FFFFFF"></path><path d="M171 437L146 600L275 455Z" fill="#f3c5f9" stroke="#FFFFFF"></path><path d="M0 127L0 287L145 274Z" fill="#f3c5f9" stroke="#FFFFFF"></path><path d="M295 0L153 0L163 125Z" fill="#00101c" stroke="#FFFFFF"></path><path d="M900 145L900 0L757 140Z" fill="#f3c5f9" stroke="#FFFFFF"></path><path d="M0 127L145 274L163 125Z" fill="#b69fce" stroke="#FFFFFF"></path><path d="M145 274L0 287L171 437Z" fill="#d4b2e4" stroke="#FFFFFF"></path><path d="M0 287L0 460L171 437Z" fill="#b69fce" stroke="#FFFFFF"></path><path d="M0 460L0 600L146 600Z" fill="#d4b2e4" stroke="#FFFFFF"></path><path d="M153 0L0 127L163 125Z" fill="#132130" stroke="#FFFFFF"></path><path d="M153 0L0 0L0 127Z" fill="#b69fce" stroke="#FFFFFF"></path></g></svg>