<svg id="visual" viewBox="0 0 1650 1605" width="1650" height="1605" xmlns="http://www.w3.org/2000/svg" xmlns:xlink="http://www.w3.org/1999/xlink" version="1.1"><g stroke-width="1" stroke-linejoin="bevel"><path d="M924.7 880.7L933.7 1052L1082 1060Z" fill="#cbc3e3" stroke="#FFFFFF"></path><path d="M1082 1060L1109 888.7L924.7 880.7Z" fill="#c8bfe1" stroke="#FFFFFF"></path><path d="M1109 888.7L1100 704.3L924.7 880.7Z" fill="#bdb4d9" stroke="#FFFFFF"></path><path d="M1100 704.3L922.7 704.3L924.7 880.7Z" fill="#c4bbde" stroke="#FFFFFF"></path><path d="M1285.3 1056L1278.3 875.7L1109 888.7Z" fill="#b3a8d2" stroke="#FFFFFF"></path><path d="M1109 888.7L1278.3 875.7L1100 704.3Z" fill="#b0a5d0" stroke="#FFFFFF"></path><path d="M719.3 899.7L739.3 1052L924.7 880.7Z" fill="#b3a8d2" stroke="#FFFFFF"></path><path d="M924.7 880.7L739.3 1052L933.7 1052Z" fill="#cbc3e3" stroke="#FFFFFF"></path><path d="M928.7 1260.3L1110 1251.3L1082 1060Z" fill="#c4bbde" stroke="#FFFFFF"></path><path d="M1082 1060L1285.3 1056L1109 888.7Z" fill="#c1b8dc" stroke="#FFFFFF"></path><path d="M715.3 729.3L719.3 899.7L924.7 880.7Z" fill="#bab0d7" stroke="#FFFFFF"></path><path d="M928.7 1260.3L1082 1060L933.7 1052Z" fill="#bab0d7" stroke="#FFFFFF"></path><path d="M1082 1060L1110 1251.3L1285.3 1056Z" fill="#aca1cd" stroke="#FFFFFF"></path><path d="M739.3 1052L928.7 1260.3L933.7 1052Z" fill="#aca1cd" stroke="#FFFFFF"></path><path d="M922.7 704.3L715.3 729.3L924.7 880.7Z" fill="#b3a8d2" stroke="#FFFFFF"></path><path d="M1278.3 875.7L1292.3 700.3L1100 704.3Z" fill="#b3a8d2" stroke="#FFFFFF"></path><path d="M1100 704.3L1114 548L922.7 704.3Z" fill="#aca1cd" stroke="#FFFFFF"></path><path d="M1481.7 723.3L1292.3 700.3L1278.3 875.7Z" fill="#c8bfe1" stroke="#FFFFFF"></path><path d="M1107 1423.7L1271.3 1255.3L1110 1251.3Z" fill="#aca1cd" stroke="#FFFFFF"></path><path d="M1110 1251.3L1271.3 1255.3L1285.3 1056Z" fill="#c4bbde" stroke="#FFFFFF"></path><path d="M739.3 1052L719.3 1251.3L928.7 1260.3Z" fill="#bdb4d9" stroke="#FFFFFF"></path><path d="M554 1064L719.3 1251.3L739.3 1052Z" fill="#a99dcb" stroke="#FFFFFF"></path><path d="M554 1064L739.3 1052L719.3 899.7Z" fill="#b0a5d0" stroke="#FFFFFF"></path><path d="M1292.3 700.3L1114 548L1100 704.3Z" fill="#c1b8dc" stroke="#FFFFFF"></path><path d="M922.7 704.3L732.3 537L715.3 729.3Z" fill="#c1b8dc" stroke="#FFFFFF"></path><path d="M1114 548L898.7 537L922.7 704.3Z" fill="#bab0d7" stroke="#FFFFFF"></path><path d="M715.3 729.3L567 886.7L719.3 899.7Z" fill="#aca1cd" stroke="#FFFFFF"></path><path d="M1271.3 1255.3L1452.7 1086L1285.3 1056Z" fill="#bab0d7" stroke="#FFFFFF"></path><path d="M1285.3 1056L1482.7 874.7L1278.3 875.7Z" fill="#c1b8dc" stroke="#FFFFFF"></path><path d="M728.3 1424.7L927.7 1414.7L928.7 1260.3Z" fill="#bab0d7" stroke="#FFFFFF"></path><path d="M928.7 1260.3L1107 1423.7L1110 1251.3Z" fill="#c1b8dc" stroke="#FFFFFF"></path><path d="M567 886.7L554 1064L719.3 899.7Z" fill="#bdb4d9" stroke="#FFFFFF"></path><path d="M927.7 1414.7L1107 1423.7L928.7 1260.3Z" fill="#c8bfe1" stroke="#FFFFFF"></path><path d="M1271.3 1255.3L1462.7 1254.3L1452.7 1086Z" fill="#c8bfe1" stroke="#FFFFFF"></path><path d="M1452.7 1086L1482.7 874.7L1285.3 1056Z" fill="#b7acd5" stroke="#FFFFFF"></path><path d="M1481.7 723.3L1298.3 551L1292.3 700.3Z" fill="#c4bbde" stroke="#FFFFFF"></path><path d="M1292.3 700.3L1298.3 551L1114 548Z" fill="#c1b8dc" stroke="#FFFFFF"></path><path d="M1114 548L1089 371.7L898.7 537Z" fill="#cbc3e3" stroke="#FFFFFF"></path><path d="M898.7 537L732.3 537L922.7 704.3Z" fill="#c8bfe1" stroke="#FFFFFF"></path><path d="M715.3 729.3L534 722.3L567 886.7Z" fill="#b7acd5" stroke="#FFFFFF"></path><path d="M1482.7 874.7L1481.7 723.3L1278.3 875.7Z" fill="#c8bfe1" stroke="#FFFFFF"></path><path d="M565 544L534 722.3L715.3 729.3Z" fill="#c8bfe1" stroke="#FFFFFF"></path><path d="M567 886.7L371.7 882.7L554 1064Z" fill="#cbc3e3" stroke="#FFFFFF"></path><path d="M1285.3 1433.7L1462.7 1254.3L1271.3 1255.3Z" fill="#a99dcb" stroke="#FFFFFF"></path><path d="M1650 1059L1650 883.7L1482.7 874.7Z" fill="#aca1cd" stroke="#FFFFFF"></path><path d="M356.7 1238.3L561 1251.3L554 1064Z" fill="#b0a5d0" stroke="#FFFFFF"></path><path d="M554 1064L561 1251.3L719.3 1251.3Z" fill="#bdb4d9" stroke="#FFFFFF"></path><path d="M719.3 1251.3L728.3 1424.7L928.7 1260.3Z" fill="#a99dcb" stroke="#FFFFFF"></path><path d="M567 1416.7L728.3 1424.7L719.3 1251.3Z" fill="#aca1cd" stroke="#FFFFFF"></path><path d="M927.7 1414.7L1096 1605L1107 1423.7Z" fill="#b0a5d0" stroke="#FFFFFF"></path><path d="M1280.3 1605L1285.3 1433.7L1107 1423.7Z" fill="#aca1cd" stroke="#FFFFFF"></path><path d="M1107 1423.7L1285.3 1433.7L1271.3 1255.3Z" fill="#b0a5d0" stroke="#FFFFFF"></path><path d="M1290.3 358.7L1089 371.7L1114 548Z" fill="#b0a5d0" stroke="#FFFFFF"></path><path d="M898.7 537L922.7 372.7L732.3 537Z" fill="#cbc3e3" stroke="#FFFFFF"></path><path d="M1089 371.7L922.7 372.7L898.7 537Z" fill="#b7acd5" stroke="#FFFFFF"></path><path d="M720.3 343.7L565 544L732.3 537Z" fill="#c1b8dc" stroke="#FFFFFF"></path><path d="M732.3 537L565 544L715.3 729.3Z" fill="#c8bfe1" stroke="#FFFFFF"></path><path d="M1481.7 723.3L1478.7 531L1298.3 551Z" fill="#aca1cd" stroke="#FFFFFF"></path><path d="M1298.3 551L1290.3 358.7L1114 548Z" fill="#a99dcb" stroke="#FFFFFF"></path><path d="M561 1251.3L567 1416.7L719.3 1251.3Z" fill="#a99dcb" stroke="#FFFFFF"></path><path d="M360.7 1435.7L567 1416.7L561 1251.3Z" fill="#c4bbde" stroke="#FFFFFF"></path><path d="M1482.7 874.7L1650 883.7L1481.7 723.3Z" fill="#a99dcb" stroke="#FFFFFF"></path><path d="M1481.7 723.3L1650 698.3L1478.7 531Z" fill="#c4bbde" stroke="#FFFFFF"></path><path d="M1650 1059L1482.7 874.7L1452.7 1086Z" fill="#bab0d7" stroke="#FFFFFF"></path><path d="M1650 1233.3L1650 1059L1452.7 1086Z" fill="#c1b8dc" stroke="#FFFFFF"></path><path d="M363.7 721.3L371.7 882.7L534 722.3Z" fill="#cbc3e3" stroke="#FFFFFF"></path><path d="M534 722.3L371.7 882.7L567 886.7Z" fill="#a99dcb" stroke="#FFFFFF"></path><path d="M911.7 1605L927.7 1414.7L728.3 1424.7Z" fill="#b0a5d0" stroke="#FFFFFF"></path><path d="M911.7 1605L1096 1605L927.7 1414.7Z" fill="#bdb4d9" stroke="#FFFFFF"></path><path d="M729.3 1605L911.7 1605L728.3 1424.7Z" fill="#c4bbde" stroke="#FFFFFF"></path><path d="M1448.7 349.7L1290.3 358.7L1298.3 551Z" fill="#c8bfe1" stroke="#FFFFFF"></path><path d="M921.7 175.3L720.3 343.7L922.7 372.7Z" fill="#b7acd5" stroke="#FFFFFF"></path><path d="M1449.7 1605L1478.7 1435.7L1285.3 1433.7Z" fill="#aca1cd" stroke="#FFFFFF"></path><path d="M1285.3 1433.7L1478.7 1435.7L1462.7 1254.3Z" fill="#a99dcb" stroke="#FFFFFF"></path><path d="M1462.7 1254.3L1650 1233.3L1452.7 1086Z" fill="#a99dcb" stroke="#FFFFFF"></path><path d="M371.7 882.7L352.7 1066L554 1064Z" fill="#aca1cd" stroke="#FFFFFF"></path><path d="M922.7 372.7L720.3 343.7L732.3 537Z" fill="#bdb4d9" stroke="#FFFFFF"></path><path d="M1083 186.3L922.7 372.7L1089 371.7Z" fill="#bab0d7" stroke="#FFFFFF"></path><path d="M1650 883.7L1650 698.3L1481.7 723.3Z" fill="#b7acd5" stroke="#FFFFFF"></path><path d="M366.7 538L363.7 721.3L534 722.3Z" fill="#cbc3e3" stroke="#FFFFFF"></path><path d="M371.7 882.7L192.3 896.7L352.7 1066Z" fill="#a99dcb" stroke="#FFFFFF"></path><path d="M366.7 538L534 722.3L565 544Z" fill="#b3a8d2" stroke="#FFFFFF"></path><path d="M1650 1408.7L1650 1233.3L1462.7 1254.3Z" fill="#bdb4d9" stroke="#FFFFFF"></path><path d="M1096 1605L1280.3 1605L1107 1423.7Z" fill="#bdb4d9" stroke="#FFFFFF"></path><path d="M561 1605L729.3 1605L728.3 1424.7Z" fill="#b0a5d0" stroke="#FFFFFF"></path><path d="M352.7 1066L356.7 1238.3L554 1064Z" fill="#bdb4d9" stroke="#FFFFFF"></path><path d="M567 1416.7L561 1605L728.3 1424.7Z" fill="#c1b8dc" stroke="#FFFFFF"></path><path d="M1478.7 531L1448.7 349.7L1298.3 551Z" fill="#c1b8dc" stroke="#FFFFFF"></path><path d="M1290.3 358.7L1083 186.3L1089 371.7Z" fill="#b3a8d2" stroke="#FFFFFF"></path><path d="M1650 340.7L1448.7 349.7L1478.7 531Z" fill="#b0a5d0" stroke="#FFFFFF"></path><path d="M720.3 343.7L564 344.7L565 544Z" fill="#cbc3e3" stroke="#FFFFFF"></path><path d="M1650 698.3L1650 529L1478.7 531Z" fill="#bab0d7" stroke="#FFFFFF"></path><path d="M564 344.7L366.7 538L565 544Z" fill="#c8bfe1" stroke="#FFFFFF"></path><path d="M363.7 721.3L192.3 896.7L371.7 882.7Z" fill="#b7acd5" stroke="#FFFFFF"></path><path d="M1280.3 1605L1449.7 1605L1285.3 1433.7Z" fill="#c8bfe1" stroke="#FFFFFF"></path><path d="M1478.7 1435.7L1650 1408.7L1462.7 1254.3Z" fill="#b7acd5" stroke="#FFFFFF"></path><path d="M1650 1605L1650 1408.7L1478.7 1435.7Z" fill="#a99dcb" stroke="#FFFFFF"></path><path d="M1292.3 165.3L1083 186.3L1290.3 358.7Z" fill="#cbc3e3" stroke="#FFFFFF"></path><path d="M720.3 343.7L543 168.3L564 344.7Z" fill="#b0a5d0" stroke="#FFFFFF"></path><path d="M360.7 1435.7L561 1605L567 1416.7Z" fill="#b7acd5" stroke="#FFFFFF"></path><path d="M1083 186.3L921.7 175.3L922.7 372.7Z" fill="#aca1cd" stroke="#FFFFFF"></path><path d="M356.7 1238.3L360.7 1435.7L561 1251.3Z" fill="#c4bbde" stroke="#FFFFFF"></path><path d="M174.3 1250.3L360.7 1435.7L356.7 1238.3Z" fill="#c8bfe1" stroke="#FFFFFF"></path><path d="M197.3 699.3L192.3 896.7L363.7 721.3Z" fill="#c1b8dc" stroke="#FFFFFF"></path><path d="M352.7 1066L168.3 1076L356.7 1238.3Z" fill="#c8bfe1" stroke="#FFFFFF"></path><path d="M921.7 175.3L744.3 163.3L720.3 343.7Z" fill="#b7acd5" stroke="#FFFFFF"></path><path d="M185.3 524L197.3 699.3L366.7 538Z" fill="#b0a5d0" stroke="#FFFFFF"></path><path d="M1449.7 187.3L1290.3 358.7L1448.7 349.7Z" fill="#cbc3e3" stroke="#FFFFFF"></path><path d="M1449.7 187.3L1292.3 165.3L1290.3 358.7Z" fill="#b7acd5" stroke="#FFFFFF"></path><path d="M1083 186.3L907.7 0L921.7 175.3Z" fill="#b7acd5" stroke="#FFFFFF"></path><path d="M921.7 175.3L907.7 0L744.3 163.3Z" fill="#b7acd5" stroke="#FFFFFF"></path><path d="M192.3 896.7L168.3 1076L352.7 1066Z" fill="#a99dcb" stroke="#FFFFFF"></path><path d="M366.7 538L197.3 699.3L363.7 721.3Z" fill="#b0a5d0" stroke="#FFFFFF"></path><path d="M192.3 896.7L0 902.7L168.3 1076Z" fill="#c4bbde" stroke="#FFFFFF"></path><path d="M354.7 347.7L366.7 538L564 344.7Z" fill="#a99dcb" stroke="#FFFFFF"></path><path d="M168.3 1076L174.3 1250.3L356.7 1238.3Z" fill="#c1b8dc" stroke="#FFFFFF"></path><path d="M1650 340.7L1449.7 187.3L1448.7 349.7Z" fill="#bdb4d9" stroke="#FFFFFF"></path><path d="M1650 529L1650 340.7L1478.7 531Z" fill="#cbc3e3" stroke="#FFFFFF"></path><path d="M363.7 191.3L354.7 347.7L564 344.7Z" fill="#c1b8dc" stroke="#FFFFFF"></path><path d="M1449.7 1605L1650 1605L1478.7 1435.7Z" fill="#b3a8d2" stroke="#FFFFFF"></path><path d="M180.3 1605L352.7 1605L360.7 1435.7Z" fill="#b7acd5" stroke="#FFFFFF"></path><path d="M360.7 1435.7L352.7 1605L561 1605Z" fill="#b0a5d0" stroke="#FFFFFF"></path><path d="M744.3 163.3L543 168.3L720.3 343.7Z" fill="#c1b8dc" stroke="#FFFFFF"></path><path d="M354.7 347.7L185.3 524L366.7 538Z" fill="#b0a5d0" stroke="#FFFFFF"></path><path d="M0 705.3L0 902.7L192.3 896.7Z" fill="#aca1cd" stroke="#FFFFFF"></path><path d="M1279.3 0L1114 0L1292.3 165.3Z" fill="#b7acd5" stroke="#FFFFFF"></path><path d="M1292.3 165.3L1114 0L1083 186.3Z" fill="#aca1cd" stroke="#FFFFFF"></path><path d="M744.3 163.3L727.3 0L543 168.3Z" fill="#c1b8dc" stroke="#FFFFFF"></path><path d="M1114 0L907.7 0L1083 186.3Z" fill="#c4bbde" stroke="#FFFFFF"></path><path d="M0 1413.7L166.3 1433.7L174.3 1250.3Z" fill="#c8bfe1" stroke="#FFFFFF"></path><path d="M174.3 1250.3L166.3 1433.7L360.7 1435.7Z" fill="#aca1cd" stroke="#FFFFFF"></path><path d="M1468.7 0L1292.3 165.3L1449.7 187.3Z" fill="#b3a8d2" stroke="#FFFFFF"></path><path d="M1468.7 0L1279.3 0L1292.3 165.3Z" fill="#bdb4d9" stroke="#FFFFFF"></path><path d="M907.7 0L727.3 0L744.3 163.3Z" fill="#bab0d7" stroke="#FFFFFF"></path><path d="M356.7 0L363.7 191.3L543 168.3Z" fill="#c8bfe1" stroke="#FFFFFF"></path><path d="M543 168.3L363.7 191.3L564 344.7Z" fill="#aca1cd" stroke="#FFFFFF"></path><path d="M354.7 347.7L169.3 355.7L185.3 524Z" fill="#c1b8dc" stroke="#FFFFFF"></path><path d="M0 705.3L192.3 896.7L197.3 699.3Z" fill="#c8bfe1" stroke="#FFFFFF"></path><path d="M168.3 1076L0 1257.3L174.3 1250.3Z" fill="#c1b8dc" stroke="#FFFFFF"></path><path d="M1650 340.7L1650 168.3L1449.7 187.3Z" fill="#c8bfe1" stroke="#FFFFFF"></path><path d="M0 902.7L0 1061L168.3 1076Z" fill="#c1b8dc" stroke="#FFFFFF"></path><path d="M363.7 191.3L169.3 355.7L354.7 347.7Z" fill="#b7acd5" stroke="#FFFFFF"></path><path d="M185.3 524L0 705.3L197.3 699.3Z" fill="#bdb4d9" stroke="#FFFFFF"></path><path d="M0 523L0 705.3L185.3 524Z" fill="#a99dcb" stroke="#FFFFFF"></path><path d="M166.3 1433.7L180.3 1605L360.7 1435.7Z" fill="#b7acd5" stroke="#FFFFFF"></path><path d="M0 1605L180.3 1605L166.3 1433.7Z" fill="#bdb4d9" stroke="#FFFFFF"></path><path d="M0 1061L0 1257.3L168.3 1076Z" fill="#bab0d7" stroke="#FFFFFF"></path><path d="M1650 168.3L1468.7 0L1449.7 187.3Z" fill="#bdb4d9" stroke="#FFFFFF"></path><path d="M363.7 191.3L171.3 164.3L169.3 355.7Z" fill="#c1b8dc" stroke="#FFFFFF"></path><path d="M727.3 0L553 0L543 168.3Z" fill="#c1b8dc" stroke="#FFFFFF"></path><path d="M169.3 355.7L0 523L185.3 524Z" fill="#b0a5d0" stroke="#FFFFFF"></path><path d="M0 1257.3L0 1413.7L174.3 1250.3Z" fill="#c4bbde" stroke="#FFFFFF"></path><path d="M1650 168.3L1650 0L1468.7 0Z" fill="#c4bbde" stroke="#FFFFFF"></path><path d="M356.7 0L171.3 164.3L363.7 191.3Z" fill="#b7acd5" stroke="#FFFFFF"></path><path d="M169.3 355.7L0 364.7L0 523Z" fill="#aca1cd" stroke="#FFFFFF"></path><path d="M553 0L356.7 0L543 168.3Z" fill="#b7acd5" stroke="#FFFFFF"></path><path d="M0 169.3L0 364.7L169.3 355.7Z" fill="#bdb4d9" stroke="#FFFFFF"></path><path d="M0 1413.7L0 1605L166.3 1433.7Z" fill="#b3a8d2" stroke="#FFFFFF"></path><path d="M356.7 0L188.3 0L171.3 164.3Z" fill="#b0a5d0" stroke="#FFFFFF"></path><path d="M171.3 164.3L0 169.3L169.3 355.7Z" fill="#c4bbde" stroke="#FFFFFF"></path><path d="M0 0L0 169.3L171.3 164.3Z" fill="#b0a5d0" stroke="#FFFFFF"></path><path d="M188.3 0L0 0L171.3 164.3Z" fill="#b7acd5" stroke="#FFFFFF"></path></g></svg>